Coordinates
version=1
nRows=8
nColumns=40
inDegrees=yes

Units are S.I. units (second, meters, Newtons, ...)
Angles are in degrees.

endheader
time	pelvis_tilt	pelvis_list	pelvis_rotation	pelvis_tx	pelvis_ty	pelvis_tz	hip_flexion_r	hip_adduction_r	hip_rotation_r	knee_angle_r	knee_angle_r_beta	ankle_angle_r	subtalar_angle_r	mtp_angle_r	hip_flexion_l	hip_adduction_l	hip_rotation_l	knee_angle_l	knee_angle_l_beta	ankle_angle_l	subtalar_angle_l	mtp_angle_l	lumbar_extension	lumbar_bending	lumbar_rotation	arm_flex_r	arm_add_r	arm_rot_r	elbow_flex_r	pro_sup_r	wrist_flex_r	wrist_dev_r	arm_flex_l	arm_add_l	arm_rot_l	elbow_flex_l	pro_sup_l	wrist_flex_l	wrist_dev_l
     51.36442857	     -5.34732953	     -6.45346455	      4.08225361	      1.06306980	      0.93028768	      0.51813186	     10.19515951	      5.78781474	    -14.76883029	     12.02699660	     12.02699660	      9.42027782	     -1.08351457	     -3.70957471	     41.90815418	    -10.68740893	      4.04745642	     58.05096847	     58.05096847	      7.22149089	    -18.74967368	     13.39503390	    -12.35865064	      4.93654780	      1.00128052	     37.99328698	    -17.10405536	     10.03122640	     68.24108514	     44.49275534	      0.00000000	      0.00000000	      2.99671910	     -6.26540907	    -10.45233621	     22.98858713	     47.21362182	      0.00000000	      0.00000000
     51.37635714	     -5.52371629	     -6.41015642	      4.20666917	      1.06208605	      0.93000330	      0.51766371	      9.78798563	      5.76504962	    -14.77681299	     11.73201118	     11.73201118	      9.69188707	     -0.96427976	     -3.76688766	     42.46479631	    -10.46156674	      3.71524154	     54.91745555	     54.91745555	      7.66309029	    -18.72500461	     13.89319828	    -12.35272099	      4.88632858	      0.74842261	     39.86691959	    -16.66535357	      9.68148316	     70.27427378	     44.45318301	      0.00000000	      0.00000000	      1.86286543	     -6.27154150	    -10.43539118	     22.12411875	     47.18681347	      0.00000000	      0.00000000
     51.38828571	     -5.70395003	     -6.38666290	      4.30263907	      1.06119016	      0.92960999	      0.51705373	      9.38611736	      5.74307057	    -14.85546467	     11.45756553	     11.45756553	      9.96361167	     -0.75296244	     -3.84936782	     42.87929022	    -10.15308130	      3.56578169	     51.68629988	     51.68629988	      8.07952991	    -18.60078244	     14.29617647	    -12.36837533	      4.82224824	      0.51005568	     41.55812064	    -16.23849303	      9.29459177	     72.55927124	     44.40602612	      0.00000000	      0.00000000	      0.75550269	     -6.25083304	    -10.39392059	     21.44656478	     47.15321120	      0.00000000	      0.00000000
     51.40021429	     -5.86212788	     -6.42070280	      4.42701126	      1.06041184	      0.92912345	      0.51616752	      8.95057577	      5.75202235	    -15.09277876	     11.18023371	     11.18023371	     10.28239091	     -0.29337228	     -3.98265314	     43.15291439	     -9.77756542	      3.68750746	     48.41968738	     48.41968738	      8.39953411	    -18.31989622	     14.46447541	    -12.42437119	      4.89306507	      0.30049976	     42.85255099	    -15.85148233	      8.71840070	     75.76023154	     44.34005973	      0.00000000	      0.00000000	     -0.41107202	     -6.16661632	    -10.28703849	     21.08164885	     47.09433064	      0.00000000	      0.00000000
     51.41214286	     -6.04646738	     -6.47627265	      4.49257241	      1.05975506	      0.92850629	      0.51521514	      8.53364210	      5.77193751	    -15.40001819	     10.90728541	     10.90728541	     10.61803914	      0.27929637	     -4.11472817	     43.33306966	     -9.43843826	      3.86734920	     45.17967165	     45.17967165	      8.53164770	    -17.81687401	     14.24150649	    -12.44821008	      4.95495192	      0.52373657	     43.88219061	    -15.81218778	      7.88091582	     79.14341386	     44.28344197	      0.00000000	      0.00000000	     -1.51021815	     -6.08807709	    -10.07417736	     21.28099928	     47.00036422	      0.00000000	      0.00000000
     51.42407143	     -6.21164068	     -6.51527043	      4.49231840	      1.05931048	      0.92783805	      0.51413172	      8.09682004	      5.76154056	    -15.62627970	     10.68072075	     10.68072075	     11.02135617	      0.95766638	     -4.15718149	     43.28329220	     -9.12373076	      4.07846973	     41.88921264	     41.88921264	      8.45045094	    -17.04959271	     13.10261814	    -12.47342033	      5.02741088	      1.29865150	     44.37354934	    -16.27828062	      6.46325984	     83.05554931	     44.26930550	      0.00000000	      0.00000000	     -2.59292268	     -6.08491886	     -9.01935337	     22.27310368	     46.69281399	      0.00000000	      0.00000000
     51.43600000	     -6.41612825	     -6.59260735	      4.48256514	      1.05904430	      0.92701415	      0.51290789	      7.67986927	      5.81995063	    -15.61241317	     10.41067576	     10.41067576	     11.34221449	      1.17918718	     -4.26252082	     43.25289041	     -8.86122030	      4.34324455	     38.89258439	     38.89258439	      8.86537367	    -15.90675604	     13.24530568	    -12.30361144	      5.16455827	      1.33289902	     45.88053972	    -15.99540385	      6.19692684	     84.30645749	     44.24972600	      0.00000000	      0.00000000	     -3.52728818	     -5.95507491	     -8.89962751	     22.05916684	     46.64392642	      0.00000000	      0.00000000
     51.44792857	     -6.48903696	     -6.69911453	      4.43107776	      1.05914652	      0.92633280	      0.51166764	      7.02689681	      5.92866993	    -15.69097465	     10.00995840	     10.00995840	     11.65062545	      1.68427009	     -4.35284955	     42.96477730	     -8.72698526	      4.54243204	     36.07704878	     36.07704878	      9.23789651	    -14.56256915	     13.33198344	    -12.28814036	      5.32143054	      1.21239059	     47.11329021	    -15.43268738	      5.92166405	     86.17440988	     44.21117776	      0.00000000	      0.00000000	     -4.68575188	     -5.85304996	     -8.76195311	     22.09451540	     46.58071091	      0.00000000	      0.00000000
